# xmcd
#
# Track frame offsets:
#	150
#	19200
#	36150
#	54225
#	71700
#	91725
#	121575
#	135900
#	152775
#
# Disc length: 2396 seconds
#
# Revision: 0
# Processed by: cddbd v1.5.1PL0 Copyright (c) Steve Scherf et al.
# Submitted via: EasyCDDAExtractor 8.2.1.1
#
DISCID=67095a09
DTITLE=Gift - Blue Apple
DYEAR=1974
DGENRE=Progressive Rock
TTITLE0=Blue Apple
TTITLE1=Rock Scene
TTITLE2=Don't Waste Your Time
TTITLE3=Psalm
TTITLE4=Everything's Alright
TTITLE5=Go To Find A Way
TTITLE6=Reflections Part 1
TTITLE7=Reflections Part 2
TTITLE8=Left The Past Behind
EXTD=
EXTT0=
EXTT1=
EXTT2=
EXTT3=
EXTT4=
EXTT5=
EXTT6=
EXTT7=
EXTT8=
PLAYORDER=
